# xmcd
# 
# Track frame offsets:
#     150
#     24255
#     42795
# 
# Disc length: 837
# 
# Revision: 1
# Processed by: cddbd v1.5.2PL0 Copyright (c) Steve Scherf et al.
# Submitted via: BonkEnc v1.0.8
# 
DISCID=16034303
DTITLE=西野カナ - Best Friend
DYEAR=10
DGENRE=JPop
TTITLE0=Best Friend
TTITLE1=ONE WAY LOVE
TTITLE2=今夜はPARTY UP
EXTD=
EXTT0=
EXTT1=
EXTT2=
PLAYORDER=
